<?xml version="1.0" standalone="no"?>
<!DOCTYPE svg PUBLIC "-//W3C//DTD SVG 20010904//EN"
 "http://www.w3.org/TR/2001/REC-SVG-20010904/DTD/svg10.dtd">
<svg version="1.0" xmlns="http://www.w3.org/2000/svg"
 width="300.000000pt" height="211.000000pt" viewBox="0 0 300.000000 211.000000"
 preserveAspectRatio="xMidYMid meet">
<metadata>
Created by potrace 1.10, written by Peter Selinger 2001-2011
</metadata>
<g transform="translate(0.000000,211.000000) scale(0.100000,-0.100000)"
fill="#000000" stroke="none">
<path d="M2976 2098 c-11 -6 -32 -11 -48 -10 -19 0 -28 -4 -25 -11 3 -7 10
-11 16 -9 6 1 11 -2 11 -7 0 -5 14 -12 30 -16 31 -7 42 -25 15 -25 -8 0 -15
-4 -15 -10 0 -5 -5 -10 -11 -10 -6 0 -9 6 -6 14 7 16 -16 40 -27 28 -4 -4 -12
1 -17 11 -12 21 -38 22 -45 2 -8 -20 -24 -19 -40 3 -12 16 -14 16 -30 0 -15
-15 -15 -17 6 -28 15 -8 20 -8 16 -1 -4 6 -4 11 1 11 14 -1 43 -27 43 -39 0
-6 5 -11 12 -11 9 0 9 -3 0 -12 -9 -9 -15 -8 -24 5 -17 21 -48 16 -66 -11 -13
-19 -13 -22 1 -22 8 0 20 7 27 15 19 22 28 18 35 -15 4 -16 10 -30 15 -30 6 0
18 -26 24 -52 4 -21 18 -19 14 2 -4 21 0 25 24 27 15 1 28 -2 28 -7 0 -6 -7
-10 -15 -10 -8 0 -15 -4 -15 -10 0 -5 7 -10 15 -10 9 0 18 -7 21 -15 4 -8 10
-15 16 -15 5 0 6 6 1 13 -4 6 -6 22 -5 34 2 14 -4 26 -19 33 -13 7 -17 15 -11
19 7 4 6 13 -4 25 -13 19 -14 19 -14 -7 0 -22 -5 -27 -25 -27 -18 0 -25 5 -25
20 0 11 7 23 15 26 18 7 19 27 3 54 -7 10 -9 22 -5 26 10 10 39 -17 33 -32 -3
-8 4 -14 17 -16 12 -2 22 -10 21 -18 -1 -10 8 -15 27 -15 24 0 26 2 13 16 -12
13 -11 18 4 33 16 17 16 19 -5 33 -13 9 -23 19 -23 24 0 14 28 11 33 -3 3 -7
6 -1 6 15 1 15 0 27 -1 27 -2 0 -12 -6 -22 -12z"/>
<path d="M2727 2033 c-13 -13 -7 -31 13 -36 25 -6 44 15 28 31 -13 13 -31 16
-41 5z"/>
<path d="M2690 1975 c0 -9 6 -12 15 -9 8 4 12 10 9 15 -8 14 -24 10 -24 -6z"/>
<path d="M2660 1961 c0 -5 -10 -12 -22 -15 -21 -6 -21 -7 -6 -16 9 -6 15 -17
12 -25 -7 -18 19 -45 43 -45 17 1 17 1 1 14 -25 19 -22 36 5 36 38 0 39 11 5
37 -36 26 -38 27 -38 14z"/>
<path d="M0 1938 c0 -8 38 -9 673 -9 202 -1 367 -4 367 -8 0 -4 7 -8 15 -8 8
0 12 4 9 9 -3 4 0 8 5 8 6 0 11 -5 11 -11 0 -8 4 -8 13 -1 17 14 19 15 49 3
20 -7 28 -7 31 2 3 9 9 9 26 0 24 -15 34 -17 28 -5 -3 4 13 8 34 10 26 2 39
-2 39 -10 0 -8 3 -9 8 -3 9 12 112 16 112 4 0 -5 5 -9 11 -9 5 0 7 5 4 10 -9
14 417 10 427 -4 4 -6 10 -7 14 -3 4 4 3 12 -2 17 -11 11 -1874 19 -1874 8z"/>
<path d="M2950 1943 c0 -14 19 -38 25 -32 8 8 -5 39 -16 39 -5 0 -9 -3 -9 -7z"/>
<path d="M1890 1929 c0 -5 62 -9 138 -10 261 -1 287 -2 295 -13 5 -8 9 -8 15
-1 4 7 45 10 102 9 52 -1 104 2 115 7 11 4 -99 9 -245 10 -146 1 -300 3 -342
4 -43 2 -78 -1 -78 -6z"/>
<path d="M2798 1918 c12 -12 25 -18 29 -14 4 4 -1 14 -11 22 -31 22 -43 17
-18 -8z"/>
<path d="M2595 1920 c-9 -15 -1 -23 21 -18 15 3 16 4 1 16 -11 9 -17 10 -22 2z"/>
<path d="M2733 1895 c-5 -14 -8 -14 -15 -3 -5 8 -6 3 -2 -14 5 -21 2 -28 -9
-28 -8 0 -18 -6 -21 -12 -5 -10 -7 -10 -12 -1 -4 10 -9 9 -21 -3 -8 -8 -12
-18 -9 -22 4 -3 11 -1 15 7 6 10 10 9 15 -4 9 -25 -2 -37 -26 -24 -14 8 -23 8
-31 0 -8 -8 -3 -11 19 -12 16 0 23 -3 17 -6 -7 -2 -13 -9 -13 -14 0 -16 21 -9
40 13 l17 22 17 -32 c9 -18 14 -37 11 -42 -3 -6 5 -10 19 -10 33 0 33 12 1 36
-23 17 -23 19 -8 36 9 10 13 21 10 25 -4 3 -7 1 -7 -5 0 -17 -25 -15 -40 3
-21 25 1 39 36 23 16 -7 32 -17 35 -21 4 -5 9 -5 13 1 3 5 -8 15 -24 22 -34
14 -40 30 -10 30 13 0 18 5 14 15 -5 11 -2 14 12 9 24 -9 16 0 -14 15 -18 10
-23 9 -29 -4z"/>
<path d="M15 1890 c-17 -7 -14 -9 13 -9 20 -1 31 3 27 9 -7 12 -13 12 -40 0z"/>
<path d="M2990 1886 c0 -8 -5 -16 -12 -18 -7 -3 -6 -7 5 -11 13 -5 17 -1 17
18 0 14 -2 25 -5 25 -3 0 -5 -6 -5 -14z"/>
<path d="M2603 1866 c23 -18 22 -25 -3 -19 -14 4 -20 0 -20 -10 0 -26 21 -31
42 -9 25 25 17 52 -14 52 -21 -1 -22 -2 -5 -14z"/>
<path d="M2810 1850 c8 -5 24 -10 34 -10 26 0 18 6 -19 14 -22 5 -26 4 -15 -4z"/>
<path d="M2910 1821 c0 -5 14 -14 30 -21 37 -15 38 -26 5 -34 -24 -6 -36 -26
-15 -26 6 0 10 5 10 10 0 6 7 10 15 10 8 0 15 -4 15 -10 0 -5 -4 -10 -10 -10
-5 0 -9 -6 -7 -12 1 -7 -8 -14 -19 -16 -16 -2 -25 5 -35 27 -9 20 -23 33 -41
37 -19 4 -28 12 -28 25 0 24 -16 25 -29 1 -8 -15 -3 -23 25 -45 19 -16 34 -23
34 -17 0 5 -5 10 -11 10 -5 0 -8 4 -4 10 9 15 45 -27 45 -53 0 -27 -17 -47
-35 -41 -7 3 -15 -2 -18 -10 -4 -10 -1 -16 8 -16 18 0 19 -12 3 -28 -9 -9 -5
-19 20 -43 40 -39 40 -48 2 -47 -17 1 -36 -4 -42 -10 -7 -7 0 -10 23 -9 30 2
34 -1 32 -20 -2 -15 3 -23 13 -23 10 0 14 7 12 23 -2 12 2 21 7 20 19 -3 12
41 -8 60 -11 9 -15 17 -8 17 7 0 9 5 5 11 -4 8 -9 7 -15 -2 -7 -12 -10 -12
-21 0 -10 10 -10 15 -1 18 7 2 9 11 6 18 -3 8 1 21 9 29 7 9 19 23 27 31 7 9
19 14 27 11 7 -3 17 0 21 7 5 8 9 4 13 -10 4 -18 8 -20 20 -12 11 8 12 12 3
16 -14 5 -18 45 -5 57 10 11 9 30 -3 39 -6 4 -5 10 5 16 8 6 12 13 8 16 -3 4
-15 0 -27 -7 -17 -10 -25 -10 -41 0 -11 7 -20 8 -20 3z"/>
<path d="M1685 1800 c-3 -5 1 -10 9 -10 8 0 18 5 21 10 3 6 -1 10 -9 10 -8 0
-18 -4 -21 -10z"/>
<path d="M1770 1801 c0 -5 10 -11 22 -13 23 -3 39 -38 18 -38 -6 0 -8 6 -5 13
4 6 -3 1 -15 -13 l-22 -25 57 -3 c32 -2 63 2 68 7 8 8 5 11 -9 11 -11 0 -26
11 -33 24 -18 32 -81 61 -81 37z"/>
<path d="M1592 1786 c-24 -6 -40 -14 -36 -19 4 -4 0 -7 -9 -7 -10 0 -15 -8
-14 -20 1 -12 8 -20 19 -20 10 0 15 5 12 13 -3 9 15 23 53 40 60 28 49 33 -25
13z"/>
<path d="M1617 1756 l-25 -24 36 -6 c71 -11 122 -7 122 10 0 21 -27 47 -41 38
-8 -4 -7 -9 2 -15 16 -9 12 -14 -20 -24 -20 -6 -23 -4 -18 9 6 14 3 16 -13 11
-11 -4 -20 -2 -20 4 0 5 8 12 18 14 14 4 14 5 1 6 -9 0 -28 -10 -42 -23z"/>
<path d="M1150 1750 c0 -5 7 -10 15 -10 8 0 15 5 15 10 0 6 -7 10 -15 10 -8 0
-15 -4 -15 -10z"/>
<path d="M1210 1730 c0 -5 9 -10 20 -10 11 0 20 5 20 10 0 6 -9 10 -20 10 -11
0 -20 -4 -20 -10z"/>
<path d="M1270 1730 c0 -5 18 -10 41 -10 22 0 38 4 35 8 -7 12 -76 14 -76 2z"/>
<path d="M1360 1730 c0 -5 16 -10 35 -10 19 0 35 5 35 10 0 6 -16 10 -35 10
-19 0 -35 -4 -35 -10z"/>
<path d="M2793 1726 c-9 -10 -5 -13 17 -12 21 1 26 4 18 14 -13 15 -20 15 -35
-2z"/>
<path d="M2855 1709 c-10 -15 3 -25 16 -12 7 7 7 13 1 17 -6 3 -14 1 -17 -5z"/>
<path d="M2393 1692 c-13 -2 -23 -6 -23 -10 0 -9 250 -6 273 3 9 4 23 5 30 2
6 -2 21 -1 32 3 19 8 -263 9 -312 2z"/>
<path d="M2796 1685 c25 -19 34 -19 34 0 0 10 -10 15 -27 15 -26 0 -26 -1 -7
-15z"/>
<path d="M2278 1673 c18 -2 45 -2 60 0 15 2 0 4 -33 4 -33 0 -45 -2 -27 -4z"/>
<path d="M2912 1657 c-24 -25 -29 -47 -11 -47 6 0 9 7 5 15 -6 18 15 20 32 3
8 -8 9 -15 1 -25 -9 -10 -8 -13 4 -13 8 0 18 -6 20 -12 3 -7 6 -3 6 10 1 12 7
22 16 22 19 0 19 17 1 36 -9 9 -17 10 -21 4 -3 -5 -13 -10 -21 -10 -12 0 -12
4 -4 20 14 27 -2 25 -28 -3z"/>
<path d="M1433 1646 c-21 -6 -36 -20 -44 -38 -14 -35 -5 -47 19 -24 12 10 26
14 38 10 19 -7 19 -7 0 14 -19 22 -19 22 2 22 13 0 22 -6 22 -15 0 -21 13 -19
35 5 20 23 29 21 19 -4 -3 -9 -12 -16 -20 -16 -8 0 -14 -4 -14 -10 0 -19 19
-10 40 20 16 23 25 28 35 20 7 -6 20 -8 29 -4 30 11 8 20 -54 22 -33 0 -64 3
-68 4 -4 2 -21 -1 -39 -6z"/>
<path d="M1303 1626 c-32 -15 -36 -33 -8 -38 13 -3 23 -1 22 5 -1 5 4 12 11
14 6 3 12 -2 12 -11 0 -9 5 -16 10 -16 6 0 9 3 9 8 -3 20 2 32 16 32 8 0 15 4
15 9 0 12 -60 10 -87 -3z"/>
<path d="M1608 1626 c-24 -18 -11 -27 19 -13 19 9 26 8 34 -4 7 -11 9 -11 9 4
0 18 15 23 25 7 6 -10 -18 -36 -51 -57 -15 -9 -5 -11 55 -7 41 3 78 7 83 10 4
3 8 0 8 -6 0 -6 10 -8 24 -4 13 3 29 0 37 -8 17 -16 59 -22 59 -8 0 6 7 10 15
10 8 0 15 -4 15 -10 0 -6 35 -10 85 -10 69 0 85 3 85 15 0 8 5 15 10 15 6 0
10 -4 10 -8 0 -4 12 -9 27 -10 25 -2 26 -1 9 17 -17 19 -37 19 -63 -2 -20 -15
-103 -10 -138 9 -11 6 -44 12 -74 13 -30 1 -60 6 -67 11 -6 6 -18 8 -26 5 -9
-4 -22 0 -29 7 -8 7 -25 15 -39 16 -14 2 -26 8 -28 13 -5 14 -75 10 -94 -5z
m131 -35 c9 -6 10 -10 2 -16 -16 -9 -44 2 -36 15 8 12 16 12 34 1z"/>
<path d="M2766 1632 c-3 -6 -15 -8 -26 -5 -15 4 -20 0 -20 -13 -1 -18 -1 -18
-14 -1 -14 18 -15 18 -41 1 -26 -17 -28 -17 -37 0 -9 15 -11 15 -29 -8 -25
-31 -24 -33 10 -38 17 -2 28 -1 25 4 -3 4 1 9 8 9 7 1 23 3 36 4 12 1 22 -2
22 -7 0 -6 7 -8 15 -5 8 4 17 2 20 -3 11 -17 37 -11 42 10 3 10 14 22 25 26
10 3 17 11 15 17 -5 15 -43 21 -51 9z m34 -11 c0 -5 -7 -11 -15 -15 -8 -3 -15
-12 -15 -21 0 -8 -3 -15 -6 -15 -10 0 -34 28 -34 39 0 15 17 14 24 -1 3 -9 8
-8 16 5 12 18 30 23 30 8z"/>
<path d="M2150 1610 c0 -5 23 -10 50 -10 28 0 50 5 50 10 0 6 -22 10 -50 10
-27 0 -50 -4 -50 -10z"/>
<path d="M2410 1611 c0 -5 -10 -7 -22 -4 -17 3 -19 2 -8 -5 19 -11 120 -3 120
9 0 5 -20 9 -45 9 -25 0 -45 -4 -45 -9z"/>
<path d="M2285 1600 c-7 -12 2 -12 30 0 19 8 19 9 -2 9 -12 1 -25 -3 -28 -9z"/>
<path d="M1534 1578 c-19 -21 -19 -21 1 -13 11 5 37 9 58 8 l39 -1 -27 14
c-37 19 -49 18 -71 -8z"/>
<path d="M2346 1584 c-3 -8 1 -17 10 -21 22 -8 29 4 11 21 -13 14 -16 14 -21
0z"/>
<path d="M2491 1564 c-14 -6 -48 -19 -74 -29 l-48 -17 32 -24 c18 -13 36 -24
41 -24 4 0 5 -6 2 -14 -4 -11 0 -13 15 -9 12 3 21 1 21 -6 0 -6 -7 -11 -15
-11 -8 0 -15 -4 -15 -10 0 -16 40 -11 47 6 4 11 -8 29 -38 56 -24 22 -37 37
-28 34 9 -2 26 4 37 15 23 20 52 26 52 9 0 -5 7 -10 15 -10 17 0 20 -16 5 -25
-6 -4 -8 -11 -4 -16 3 -5 10 -6 16 -3 6 4 8 -1 6 -11 -3 -20 -28 -33 -28 -15
0 14 -25 40 -39 40 -16 0 -14 -7 10 -34 12 -13 32 -27 45 -30 18 -5 24 -13 24
-36 0 -16 -4 -31 -8 -34 -13 -8 -38 27 -34 48 3 11 0 16 -7 11 -6 -3 -9 -11
-6 -16 6 -9 0 -12 -50 -25 l-30 -7 33 -9 c23 -6 32 -14 32 -30 0 -19 2 -20 18
-6 9 9 27 19 40 22 18 6 22 4 22 -14 0 -19 -4 -21 -25 -16 -18 5 -25 2 -25 -8
0 -10 6 -13 18 -10 15 5 15 4 -1 -9 -11 -9 -25 -13 -32 -11 -7 3 -15 2 -18 -3
-3 -4 7 -9 21 -10 18 -1 36 9 54 28 l28 29 0 -25 c0 -18 4 -23 15 -18 9 3 14
11 12 17 -2 6 3 16 12 23 14 11 14 12 1 13 -17 0 -43 57 -34 72 3 5 12 7 20 4
8 -3 14 -1 14 4 0 6 -15 11 -32 11 l-33 1 30 8 c22 6 25 8 9 9 -22 1 -36 26
-38 68 -1 12 -4 24 -8 28 -4 4 -4 13 -1 21 6 17 -35 16 -76 -2z"/>
<path d="M2804 1570 c-12 -5 -25 -14 -29 -20 -4 -6 -18 -9 -35 -5 -20 4 -29 2
-34 -11 -4 -9 -3 -20 0 -23 4 -3 9 0 11 6 3 8 14 11 29 7 17 -4 26 -1 30 10 3
9 11 16 18 16 6 0 20 7 30 15 22 16 13 19 -20 5z"/>
<path d="M2655 1559 c-4 -6 -4 -13 0 -17 3 -3 10 0 14 7 5 7 14 10 20 7 6 -4
11 -2 11 3 0 14 -37 14 -45 0z"/>
<path d="M2220 1546 c28 -17 80 -21 80 -6 0 6 -12 10 -27 10 -16 0 -39 3 -53
6 l-25 5 25 -15z"/>
<path d="M2600 1530 c-8 -16 -8 -20 4 -20 8 0 16 -6 19 -12 8 -23 15 -4 10 25
-6 32 -18 35 -33 7z"/>
<path d="M2815 1540 c-3 -5 3 -10 14 -10 11 0 23 5 26 10 3 6 -3 10 -14 10
-11 0 -23 -4 -26 -10z"/>
<path d="M80 1522 c0 -4 9 -13 20 -20 19 -12 20 -11 8 8 -13 20 -28 27 -28 12z"/>
<path d="M2950 1521 c0 -5 11 -11 25 -13 17 -4 25 -1 25 8 0 8 -11 14 -25 14
-14 0 -25 -4 -25 -9z"/>
<path d="M398 1513 c12 -2 30 -2 40 0 9 3 -1 5 -23 4 -22 0 -30 -2 -17 -4z"/>
<path d="M2193 1508 c1 -7 8 -17 15 -23 7 -6 19 -30 27 -55 l14 -45 0 41 c1
27 -6 50 -20 68 -22 27 -41 35 -36 14z"/>
<path d="M2670 1495 c21 -22 21 -25 5 -31 -9 -4 -20 -2 -25 6 -4 7 -10 8 -14
2 -3 -5 6 -22 19 -36 14 -15 25 -31 25 -36 0 -4 14 -13 31 -19 17 -6 45 -23
62 -37 27 -23 33 -24 35 -10 4 18 27 22 37 6 3 -5 -1 -10 -9 -10 -21 0 -21
-16 0 -24 10 -4 23 3 34 16 15 19 21 21 31 11 11 -11 11 -13 0 -13 -13 0 -41
-24 -41 -34 0 -3 7 -6 15 -6 8 0 15 5 15 10 0 6 14 10 31 10 24 0 30 4 25 15
-3 9 0 15 10 15 10 0 14 -6 11 -14 -3 -8 1 -17 9 -20 24 -9 31 -7 14 5 -11 8
-12 12 -2 16 6 2 12 8 12 13 0 12 -43 20 -55 10 -7 -6 -24 -5 -46 2 -19 6 -41
13 -49 15 -12 3 -12 6 -1 12 11 7 11 9 0 14 -9 3 -6 6 7 6 12 1 38 -6 57 -14
38 -16 57 -6 31 16 -13 10 -17 10 -23 0 -6 -9 -10 -6 -15 12 -3 14 -15 27 -27
30 -18 5 -21 11 -15 37 4 23 2 30 -7 27 -6 -2 -11 -12 -11 -21 2 -13 -3 -15
-20 -10 -18 6 -17 3 7 -18 15 -13 27 -27 27 -31 0 -13 -23 -7 -36 11 -12 15
-13 15 -14 0 0 -9 6 -19 13 -21 9 -4 9 -8 -3 -16 -8 -5 -18 -7 -22 -4 -5 2
-15 -1 -23 -7 -10 -8 -19 -9 -32 -1 -16 9 -16 10 5 11 32 0 56 26 46 48 -6 15
-8 14 -11 -5 -3 -17 -11 -23 -29 -23 -13 0 -24 -4 -24 -10 0 -19 -28 -10 -33
11 -5 19 -2 21 25 17 26 -4 32 -1 40 24 5 15 16 28 23 28 19 0 25 13 16 29 -7
11 -13 9 -30 -8 -11 -11 -21 -28 -21 -36 0 -20 -28 -31 -42 -17 -7 7 -3 17 12
32 25 25 21 36 -8 21 -15 -8 -23 -7 -32 4 -7 8 -17 15 -23 15 -6 0 0 -11 13
-25z m145 -135 c-28 -12 -37 -12 -30 0 3 6 16 10 28 9 21 0 21 -1 2 -9z"/>
<path d="M2080 1468 c-11 -12 -20 -25 -20 -30 0 -4 -8 -8 -17 -8 -14 0 -14 -3
-5 -12 9 -9 15 -10 20 -2 4 6 17 14 30 18 12 4 22 12 22 17 0 5 7 9 15 9 8 0
15 -6 15 -13 0 -17 -20 -37 -38 -37 -7 0 -20 -7 -29 -16 -9 -8 -22 -13 -30
-10 -8 3 -11 1 -8 -4 20 -32 129 35 123 75 -2 13 -9 19 -20 17 -10 -2 -18 2
-18 8 0 17 -18 11 -40 -12z"/>
<path d="M2926 1481 c-5 -7 4 -12 42 -21 4 -1 13 -6 20 -12 9 -8 12 -5 12 10
0 14 -5 20 -14 16 -8 -3 -24 -1 -35 5 -11 6 -22 7 -25 2z"/>
<path d="M2915 1440 c-3 -5 4 -11 15 -15 11 -3 26 -12 33 -20 9 -8 19 -10 28
-4 11 7 11 9 -3 9 -10 0 -18 3 -18 8 0 11 -49 31 -55 22z"/>
<path d="M2193 1433 c-7 -3 -13 -11 -13 -19 0 -8 -7 -14 -15 -14 -8 0 -15 -4
-15 -9 0 -5 -9 -7 -19 -4 -16 4 -19 1 -14 -16 4 -16 1 -21 -13 -21 -15 0 -16
-2 -5 -9 17 -11 43 -3 35 10 -3 5 3 9 13 9 22 1 44 18 60 47 13 23 7 34 -14
26z"/>
<path d="M2657 1374 c-4 -4 1 -14 11 -23 27 -24 49 -84 34 -89 -9 -3 -10 -8
-3 -16 6 -7 6 -17 1 -26 -7 -10 -10 -11 -10 -2 0 6 -5 12 -11 12 -6 0 -9 -6
-6 -12 2 -7 -3 -18 -12 -24 -13 -10 -13 -14 -2 -28 7 -9 18 -16 24 -16 6 0 8
3 4 6 -11 11 57 84 78 84 22 0 18 -18 -6 -25 -19 -6 -20 -7 -2 -20 12 -9 22
-10 30 -3 8 6 19 6 33 -2 11 -6 25 -8 30 -5 17 11 11 32 -12 43 -22 10 -22 11
-2 11 11 1 31 -10 44 -24 l24 -26 -22 -6 c-12 -3 -22 -9 -22 -14 0 -5 14 -2
30 6 29 15 30 17 14 33 -16 16 -15 17 14 26 18 5 32 16 32 24 0 12 -3 12 -16
1 -12 -10 -17 -10 -23 0 -6 9 -11 8 -21 -4 -15 -18 -30 -20 -30 -2 0 22 -26
51 -39 43 -9 -6 -7 -11 6 -21 17 -13 16 -14 -11 -25 -35 -13 -56 1 -36 25 10
13 9 15 -9 15 -11 0 -21 5 -21 10 0 6 -9 10 -20 10 -27 0 -26 19 2 29 16 6 18
10 9 16 -8 4 -17 2 -23 -6 -7 -11 -11 -11 -15 -1 -2 6 -11 12 -19 12 -9 0 -12
5 -9 10 7 11 -8 14 -18 4z m93 -105 c0 -27 -17 -23 -22 5 -4 17 -1 23 9 19 7
-3 13 -14 13 -24z"/>
<path d="M1520 1352 c0 -5 14 -7 30 -4 17 2 30 6 30 8 0 2 -13 4 -30 4 -16 0
-30 -4 -30 -8z"/>
<path d="M1760 1350 c-12 -8 -11 -10 8 -10 12 0 22 5 22 10 0 13 -11 13 -30 0z"/>
<path d="M1990 1350 c0 -5 7 -10 15 -10 8 0 15 5 15 10 0 6 -7 10 -15 10 -8 0
-15 -4 -15 -10z"/>
<path d="M1323 1343 c15 -2 37 -2 50 0 12 2 0 4 -28 4 -27 0 -38 -2 -22 -4z"/>
<path d="M2217 1344 c-4 -4 -17 -7 -29 -8 -15 -1 -23 -7 -23 -18 0 -25 -34
-61 -50 -54 -9 3 -13 -2 -12 -19 3 -34 77 -88 77 -55 0 6 -7 10 -15 10 -8 0
-15 9 -15 21 0 13 -4 18 -12 13 -7 -4 -4 2 6 14 11 12 24 32 30 44 6 13 20 24
30 26 16 3 15 0 -6 -30 -12 -18 -26 -34 -30 -36 -10 -5 2 -32 14 -32 5 0 7 4
4 8 -7 11 33 44 44 37 5 -3 0 -15 -12 -27 -15 -15 -17 -22 -8 -28 7 -4 9 -13
6 -19 -4 -6 -3 -11 2 -11 14 0 25 28 28 74 4 40 20 69 34 61 5 -3 12 0 16 6 3
6 0 15 -7 20 -16 10 -63 12 -72 3z"/>
<path d="M1920 1329 c0 -7 -9 -9 -21 -6 -15 4 -17 2 -10 -6 12 -15 181 -23
181 -8 0 6 -23 10 -54 10 -29 -1 -63 4 -75 10 -16 9 -21 9 -21 0z"/>
<path d="M2399 1324 c-6 -8 -29 -17 -50 -20 -39 -6 -51 -18 -26 -27 9 -3 9 -7
-1 -19 -10 -13 -10 -17 2 -21 9 -4 16 3 20 19 7 28 18 30 36 9 7 -8 18 -15 24
-15 6 0 3 7 -7 14 -15 12 -15 15 -3 25 11 9 25 10 50 2 48 -13 48 8 1 30 -29
14 -37 14 -46 3z"/>
<path d="M1730 1289 c-8 -5 -40 -16 -70 -25 -30 -9 -60 -20 -65 -25 -6 -4 -30
-11 -53 -15 -56 -9 -64 -24 -10 -18 84 9 117 16 129 30 6 8 16 14 22 14 6 0
18 6 26 14 21 18 71 29 71 16 0 -6 21 -9 48 -9 29 1 37 4 19 6 -15 2 -25 7
-23 11 6 11 -78 12 -94 1z"/>
<path d="M2272 1278 c3 -7 12 -14 21 -16 12 -2 15 1 11 12 -7 19 -38 22 -32 4z"/>
<path d="M2644 1279 c-10 -17 13 -36 27 -22 12 12 4 33 -11 33 -5 0 -12 -5
-16 -11z"/>
<path d="M2970 1271 c14 -11 27 -15 29 -10 4 13 2 15 -29 23 l-25 7 25 -20z"/>
<path d="M1885 1270 c-3 -6 -4 -13 -1 -18 2 -4 -43 -23 -100 -41 -57 -19 -104
-38 -104 -43 0 -4 -6 -8 -14 -8 -8 0 -21 -6 -28 -12 -29 -27 -56 -38 -61 -25
-4 9 -7 9 -18 0 -7 -7 -23 -13 -36 -13 -13 0 -23 -4 -23 -8 0 -10 -74 -31
-150 -41 -79 -12 -163 -32 -177 -43 -7 -5 -16 -7 -22 -4 -12 8 -61 -14 -61
-26 0 -5 -4 -6 -10 -3 -14 8 -133 -16 -145 -30 -5 -7 -17 -14 -25 -17 -8 -3
-1 -7 17 -10 24 -3 39 1 55 16 15 14 23 16 26 8 2 -7 13 -12 25 -12 21 1 21 1
4 14 -16 12 -16 14 -1 20 24 9 36 7 28 -6 -5 -8 2 -9 26 -5 18 4 37 7 42 7 6
0 8 6 5 14 -4 10 5 13 34 13 21 0 45 6 54 13 8 7 22 10 30 6 8 -3 15 0 15 6 0
6 11 8 30 4 21 -4 68 7 156 35 69 23 127 39 130 36 3 -3 7 -11 8 -19 1 -7 10
-27 19 -45 13 -24 14 -33 4 -36 -9 -4 -9 -8 -1 -14 6 -4 11 -30 9 -56 -1 -26
2 -50 7 -53 9 -6 11 12 8 63 -1 28 1 32 17 27 17 -5 17 -4 -1 10 -11 9 -21 30
-23 48 -2 17 -7 34 -11 37 -12 9 -12 51 -1 51 15 0 39 26 32 34 -4 3 1 6 9 6
9 0 18 -5 20 -11 2 -6 14 -4 33 6 l30 16 -35 -5 c-31 -6 -29 -4 15 15 34 14
60 19 85 14 25 -4 31 -3 20 4 -12 8 -7 13 25 26 22 9 49 20 60 25 11 5 30 12
43 15 12 4 22 9 22 13 0 11 -89 12 -95 2z"/>
<path d="M1996 1253 c-4 -9 3 -9 25 -1 36 12 37 16 4 14 -14 0 -27 -6 -29 -13z"/>
<path d="M2437 1264 c-3 -3 -3 -12 0 -20 6 -16 49 -19 58 -4 6 10 -7 14 -34
11 -7 -2 -10 2 -6 8 7 12 -7 15 -18 5z"/>
<path d="M2578 1252 c12 -11 22 -25 22 -32 0 -20 25 -4 28 18 3 16 -2 22 -16
22 -11 0 -29 3 -39 6 -15 5 -14 2 5 -14z"/>
<path d="M2270 1235 c0 -8 7 -15 15 -15 8 0 15 -5 15 -12 0 -9 3 -9 12 0 9 9
8 15 -8 27 -25 19 -34 19 -34 0z"/>
<path d="M2357 1217 c-4 -27 -3 -28 9 -12 12 16 17 17 37 6 18 -10 23 -20 23
-56 0 -37 -2 -42 -17 -35 -9 5 -19 6 -23 2 -4 -3 -4 1 0 11 3 10 1 17 -5 17
-6 0 -11 -5 -11 -10 0 -6 -11 -3 -24 7 -21 16 -22 19 -8 25 15 6 15 7 1 7 -25
1 -28 -8 -12 -39 12 -24 19 -29 44 -26 23 3 29 0 25 -11 -3 -8 -6 -26 -6 -39
0 -15 -6 -24 -15 -24 -8 0 -15 -4 -15 -10 0 -17 19 -11 32 10 15 23 43 28 35
6 -4 -10 -1 -13 9 -9 8 3 14 -1 14 -11 0 -35 18 -13 24 29 6 37 11 45 28 45
16 0 18 -3 10 -13 -6 -7 -9 -27 -7 -45 3 -22 1 -30 -7 -26 -8 5 -9 -1 -5 -17
4 -13 7 -30 7 -36 0 -7 4 -13 9 -13 4 0 6 11 4 24 -4 18 1 27 18 37 20 10 21
13 7 18 -13 5 -15 10 -7 21 8 11 12 12 16 3 8 -22 36 -15 30 7 -3 10 1 24 9
31 8 6 11 15 8 20 -6 11 20 39 35 39 16 0 13 -18 -3 -27 -23 -13 7 -46 44 -48
37 -2 41 21 5 37 -14 6 -24 16 -22 22 5 14 -17 36 -36 36 -8 0 -20 -13 -27
-30 -7 -16 -18 -30 -25 -30 -7 0 -15 -9 -18 -20 -9 -35 -23 -22 -21 20 1 22
-3 40 -8 40 -6 0 -8 7 -4 15 3 8 1 15 -4 15 -18 0 -10 20 8 21 14 0 14 2 -3 9
-31 13 -37 12 -30 -10 5 -14 2 -20 -9 -20 -9 0 -16 7 -16 15 0 8 -9 15 -19 15
-10 0 -21 6 -24 14 -3 7 -17 15 -30 18 -22 4 -26 1 -30 -25z m133 -82 c0 -16
-6 -25 -16 -25 -9 0 -12 -5 -8 -12 5 -8 2 -9 -9 -5 -10 3 -17 2 -17 -2 0 -5 5
-11 12 -13 6 -2 8 -9 4 -16 -5 -9 -12 -9 -26 1 -26 15 -25 34 0 42 13 4 20 15
20 31 0 17 5 24 20 24 15 0 20 -7 20 -25z"/>
<path d="M2513 1235 c0 -7 8 -10 20 -7 14 3 18 1 13 -6 -4 -7 -2 -12 3 -12 18
0 12 -18 -6 -22 -15 -3 -15 -4 1 -20 19 -20 36 -23 36 -8 0 6 -5 10 -11 10 -8
0 -7 5 1 15 10 13 10 19 -4 33 -9 10 -14 21 -12 23 2 2 -6 5 -18 5 -13 1 -23
-4 -23 -11z"/>
<path d="M1900 1220 c-26 -16 -4 -21 26 -5 23 12 25 15 9 15 -11 0 -27 -4 -35
-10z"/>
<path d="M465 1210 c-7 -12 2 -12 30 0 19 8 19 9 -2 9 -12 1 -25 -3 -28 -9z"/>
<path d="M1270 1210 c-12 -8 -11 -10 8 -10 12 0 22 5 22 10 0 13 -11 13 -30 0z"/>
<path d="M2079 1220 c-7 -58 -6 -70 11 -70 10 0 21 -6 23 -12 3 -8 6 -6 6 4 1
15 -38 91 -40 78z"/>
<path d="M2990 1212 c0 -6 -13 -13 -30 -17 -26 -6 -43 -25 -22 -25 4 0 16 -14
27 -30 11 -16 23 -30 26 -30 13 0 4 50 -10 55 -11 4 -10 9 4 25 10 11 15 23
12 27 -4 3 -7 1 -7 -5z"/>
<path d="M1515 1191 c-6 -5 -45 -17 -88 -26 -42 -9 -79 -21 -82 -26 -3 -4 -32
-11 -65 -15 -33 -4 -58 -10 -55 -13 2 -4 -10 -6 -28 -3 -25 3 -29 1 -17 -8 12
-8 10 -9 -10 -5 -44 10 -235 -43 -235 -65 0 -9 -11 -16 -25 -17 -23 -2 -23 -2
-5 6 17 8 16 10 -10 10 -30 0 -111 -19 -130 -30 -5 -4 -46 -14 -90 -24 -44 -9
-98 -26 -120 -37 -22 -11 -51 -24 -65 -28 -24 -8 -24 -8 -2 -9 12 -1 38 6 57
13 19 8 35 12 35 9 0 -3 6 0 14 6 9 8 16 8 20 2 4 -6 18 -3 36 7 27 15 32 15
41 2 9 -12 10 -11 6 8 -5 22 7 30 18 12 4 -6 11 -8 16 -4 5 3 7 10 4 15 -8 12
11 12 54 -1 28 -8 38 -6 52 6 11 10 35 16 59 16 22 0 40 3 40 9 0 5 7 9 15 9
9 0 12 6 9 15 -5 11 2 15 27 16 19 1 37 1 42 0 4 0 7 3 7 7 0 8 39 14 85 13
20 -1 136 25 165 36 8 3 25 6 38 7 13 1 26 6 30 12 7 10 104 44 126 44 18 0
66 24 66 33 0 10 -24 9 -35 -2z m-681 -199 c-11 -11 -27 -17 -39 -13 -20 5
-20 5 0 9 11 2 24 8 30 13 5 5 13 9 19 9 5 0 1 -8 -10 -18z"/>
<path d="M2035 1189 c-10 -15 1 -23 20 -15 9 3 13 10 10 16 -8 13 -22 13 -30
-1z"/>
<path d="M2719 1178 c-1 -7 -1 -18 0 -25 1 -6 -3 -15 -9 -18 -8 -5 -4 -15 11
-31 l23 -24 13 31 c7 17 17 28 22 25 16 -10 22 11 7 23 -10 8 -16 9 -21 1 -9
-15 -25 -12 -25 4 0 19 -20 32 -21 14z"/>
<path d="M722 1170 c-18 -4 -36 -10 -39 -13 -7 -8 66 4 92 14 20 8 20 8 0 7
-11 0 -35 -4 -53 -8z"/>
<path d="M1755 1169 c-12 -19 3 -22 27 -5 l22 16 -21 0 c-12 0 -25 -5 -28 -11z"/>
<path d="M2249 1154 c0 -10 -13 -29 -30 -42 -25 -20 -30 -21 -35 -8 -3 9 -10
13 -15 10 -5 -3 -9 0 -9 5 0 6 11 11 25 11 14 0 25 5 25 10 0 18 -63 7 -68
-12 -5 -22 -20 -23 -43 -2 -11 10 -19 12 -24 4 -4 -6 8 -16 27 -25 18 -8 27
-14 21 -15 -7 0 -13 -4 -13 -9 0 -5 17 -9 37 -8 28 2 39 -2 41 -15 2 -9 -5
-19 -15 -22 -10 -3 -30 -17 -44 -30 -14 -13 -34 -26 -45 -28 -10 -2 -18 -10
-16 -16 1 -7 -5 -15 -13 -18 -25 -10 -17 -32 13 -36 l27 -4 -24 -10 c-17 -7
-21 -13 -12 -18 6 -4 23 0 37 9 13 9 29 13 35 9 8 -4 9 1 4 17 -9 30 -17 37
-22 22 -5 -15 -43 -17 -43 -3 0 6 5 10 11 10 5 0 7 5 3 12 -4 6 -3 8 4 4 6 -3
14 -2 17 4 5 8 11 8 20 0 16 -13 30 3 19 21 -7 12 42 58 62 59 6 0 17 -7 24
-15 7 -8 22 -15 34 -14 18 0 16 3 -9 14 -16 8 -24 14 -17 15 6 0 12 5 12 11 0
6 -6 9 -14 6 -17 -7 -43 20 -31 31 4 4 10 1 12 -6 3 -6 9 -9 14 -6 6 3 5 11
-2 20 -10 12 -9 13 5 8 10 -4 16 -1 16 8 0 7 10 18 22 23 23 11 37 35 19 35
-6 0 -11 -8 -11 -17 -1 -16 -2 -16 -15 1 -15 20 -15 20 -16 0z"/>
<path d="M2905 1129 c-16 -6 -14 -8 13 -8 33 -1 41 4 20 12 -7 2 -22 1 -33 -4z"/>
<path d="M10 1120 c-12 -7 -8 -10 16 -10 21 0 40 -10 62 -33 31 -32 46 -71 20
-50 -15 12 -78 22 -95 16 -22 -8 -15 -43 8 -43 11 0 27 -7 35 -15 9 -8 30 -15
47 -14 l32 1 -37 10 c-21 6 -38 14 -38 19 0 12 67 12 74 0 3 -4 23 -11 43 -15
21 -3 51 -13 67 -21 33 -18 36 -18 36 -5 0 6 -7 10 -15 10 -8 0 -15 4 -15 8 0
5 -25 15 -55 22 -33 8 -55 19 -55 27 0 25 -1 28 -23 52 l-22 24 40 -7 c86 -15
158 -19 152 -9 -6 10 -88 23 -172 28 -22 1 -51 5 -65 9 -14 4 -32 2 -40 -4z"/>
<path d="M2042 1122 c-6 -2 -12 -8 -12 -14 0 -6 8 -7 17 -4 15 6 15 5 -1 -13
-17 -19 -17 -20 3 -30 31 -17 51 -14 44 7 -11 30 -38 59 -51 54z"/>
<path d="M335 1100 c-20 -9 -20 -9 0 -9 11 0 27 4 35 9 13 9 13 10 0 9 -8 0
-24 -4 -35 -9z"/>
<path d="M2770 1101 c0 -5 7 -11 15 -15 23 -8 18 -28 -5 -21 -11 3 -20 2 -20
-3 0 -15 28 -34 40 -27 5 3 10 -1 10 -10 0 -19 88 -104 108 -105 10 0 10 4 0
20 -7 11 -18 20 -24 20 -6 0 -17 6 -23 13 -8 10 -7 13 7 13 24 -1 30 18 6 22
-47 7 -64 13 -59 21 3 5 -1 12 -7 15 -10 5 -10 7 0 12 10 5 8 12 -9 30 -23 25
-39 31 -39 15z"/>
<path d="M2832 1103 c-6 -2 -9 -9 -6 -15 4 -6 10 -5 15 3 4 7 11 10 15 6 4 -3
1 -13 -6 -22 -8 -10 -9 -15 -1 -15 6 0 11 -8 11 -18 0 -14 8 -18 36 -19 27 -1
34 2 30 14 -3 8 -6 18 -6 23 0 5 -10 10 -22 12 -13 2 -23 10 -23 18 0 15 -21
22 -43 13z"/>
<path d="M2250 1089 c0 -5 7 -12 15 -15 9 -4 14 -12 13 -19 -5 -24 17 -17 24
7 3 13 6 17 7 10 1 -10 4 -10 15 0 8 7 13 14 12 16 -8 7 -86 9 -86 1z"/>
<path d="M2935 1085 c11 -8 30 -24 43 -36 13 -12 22 -16 22 -9 0 17 -51 60
-70 60 -11 -1 -10 -4 5 -15z"/>
<path d="M1883 1063 c-11 -22 -10 -31 2 -50 8 -12 15 -28 14 -35 0 -7 -5 -3
-11 10 -14 27 -34 29 -34 2 0 -11 5 -20 11 -20 5 0 3 -5 -5 -10 -8 -5 -11 -10
-6 -10 19 0 -28 -40 -59 -50 -32 -11 -52 -36 -39 -49 4 -3 9 0 11 7 3 6 11 12
18 12 7 0 15 6 18 13 2 6 17 12 33 12 23 0 29 4 29 22 0 12 4 25 8 29 13 13
47 11 47 -3 0 -7 4 -13 9 -13 13 0 35 29 28 37 -4 3 -2 12 5 20 10 12 7 13
-15 8 -17 -5 -27 -3 -27 4 0 6 4 11 10 11 12 0 8 27 -8 58 -16 29 -24 28 -39
-5z"/>
<path d="M2600 1053 c0 -32 4 -43 15 -43 18 0 18 -4 0 45 l-14 40 -1 -42z"/>
<path d="M2652 1041 c-11 -6 -8 -12 10 -27 38 -30 44 -46 13 -34 -34 13 -77
13 -55 1 8 -5 30 -12 48 -16 18 -4 72 -25 120 -48 48 -23 91 -40 96 -39 5 2 4
-3 -2 -11 -9 -11 -4 -22 24 -55 20 -23 40 -39 45 -36 6 3 19 -2 30 -12 13 -12
19 -13 19 -4 0 16 -30 39 -51 40 -18 0 -63 49 -54 58 3 4 10 1 14 -6 4 -8 15
-14 23 -16 8 -1 27 -10 41 -19 23 -15 27 -15 27 -2 0 9 -23 26 -54 40 -30 14
-58 30 -61 35 -3 6 -16 10 -28 10 -17 0 -19 2 -8 9 11 7 4 20 -33 58 -48 49
-49 33 -1 -22 16 -18 22 -31 15 -33 -7 -3 -41 28 -77 67 -65 71 -76 78 -101
62z m38 -16 c0 -8 -4 -15 -10 -15 -5 0 -10 7 -10 15 0 8 5 15 10 15 6 0 10 -7
10 -15z"/>
<path d="M2330 1029 c0 -6 -6 -9 -14 -6 -8 3 -17 0 -20 -8 -2 -7 2 -16 9 -19
8 -3 12 -12 9 -21 -5 -11 0 -15 17 -13 20 3 25 -2 27 -26 4 -28 9 -38 45 -77
10 -12 16 -27 13 -35 -7 -17 -26 -19 -26 -2 0 20 -52 68 -74 68 -12 0 -27 -9
-34 -20 -10 -17 -10 -20 3 -20 8 0 15 4 15 9 0 5 7 12 16 15 13 5 15 1 10 -19
-4 -14 -3 -25 2 -25 4 0 13 -14 20 -32 10 -28 9 -34 -8 -50 -19 -18 -60 -25
-60 -10 0 4 -9 8 -20 8 -11 0 -20 -6 -20 -12 0 -6 9 -14 20 -17 11 -3 20 -12
20 -21 0 -20 -17 -21 -36 -1 -8 8 -23 19 -32 24 -15 9 -15 12 7 35 14 14 33
26 42 26 13 0 16 5 12 16 -5 13 -2 15 15 9 25 -7 29 7 7 25 -10 9 -15 9 -15 1
0 -6 -7 -11 -15 -11 -8 0 -15 -7 -15 -15 0 -8 -7 -15 -16 -15 -9 0 -18 -9 -21
-20 -3 -11 -12 -20 -19 -20 -22 0 -16 -31 6 -37 20 -5 24 -15 20 -42 -1 -9 4
-12 14 -8 9 4 21 -1 28 -11 15 -19 59 -23 65 -5 3 7 -5 20 -16 30 -25 21 -27
33 -6 33 8 0 25 11 37 25 22 25 22 25 42 5 12 -10 26 -16 32 -12 14 10 15 52
1 49 -7 -1 -12 5 -12 13 0 8 6 16 13 16 6 1 16 2 21 3 15 2 1 38 -26 67 -14
15 -26 32 -27 38 -1 6 -6 17 -11 25 -5 10 -4 16 3 19 7 2 12 8 12 14 0 6 -7 7
-16 4 -14 -6 -15 -4 -4 9 12 14 15 14 28 1 12 -12 13 -18 3 -30 -10 -12 -9
-20 4 -40 17 -25 35 -34 35 -18 0 4 -7 18 -16 31 -10 14 -13 26 -7 30 15 9 26
51 15 51 -6 0 -13 -6 -15 -12 -4 -10 -8 -10 -16 1 -8 12 -14 13 -37 3 -32 -15
-43 -8 -26 18 7 12 8 20 2 20 -5 0 -10 -5 -10 -11z m54 -215 c9 -24 7 -44 -5
-44 -5 0 -8 4 -4 9 3 5 1 12 -5 16 -12 8 -13 35 -1 35 5 0 12 -7 15 -16z m-80
-150 c9 -24 7 -28 -9 -14 -17 14 -20 30 -6 30 5 0 12 -7 15 -16z"/>
<path d="M2545 994 c-9 -14 -14 -28 -11 -31 6 -6 45 37 46 50 0 16 -19 6 -35
-19z"/>
<path d="M2931 998 c-1 -9 -7 -19 -13 -22 -9 -3 -8 -8 5 -16 13 -8 17 -19 13
-34 -4 -18 1 -26 29 -39 l35 -17 0 25 c0 16 -6 25 -16 25 -14 0 -14 -3 -4 -15
14 -16 3 -20 -19 -6 -8 5 -12 18 -9 29 3 10 1 27 -4 36 -14 25 10 20 33 -6 10
-13 18 -18 19 -12 0 17 -38 57 -49 50 -5 -3 -12 0 -14 6 -4 8 -6 7 -6 -4z"/>
<path d="M2018 988 c14 -14 16 -32 2 -23 -5 3 -18 1 -27 -4 -10 -6 -14 -11 -9
-11 5 0 1 -9 -8 -19 -13 -14 -14 -21 -6 -26 7 -4 17 -1 22 6 8 12 9 11 5 -1
-2 -9 -15 -15 -31 -15 -21 1 -24 -2 -14 -10 7 -5 19 -18 27 -28 13 -16 12 -17
-13 -8 -18 7 -26 7 -26 0 0 -6 -8 -8 -19 -4 -12 4 -21 0 -25 -11 -4 -11 -10
-13 -19 -6 -8 7 -16 5 -27 -6 -13 -14 -13 -15 1 -10 19 7 30 0 47 -29 16 -29
15 -33 -3 -33 -8 0 -15 -4 -15 -8 0 -5 -11 -14 -25 -20 -14 -6 -25 -18 -25
-27 0 -8 -7 -15 -15 -15 -9 0 -18 -7 -21 -15 -10 -24 -26 -17 -18 7 6 20 5 21
-10 9 -14 -12 -16 -11 -16 10 0 26 49 56 75 45 8 -3 19 3 25 14 16 30 12 37
-19 32 -16 -2 -32 1 -35 7 -9 14 -46 15 -46 1 0 -5 7 -7 15 -4 11 5 13 2 9
-10 -4 -10 -13 -14 -24 -11 -15 5 -17 0 -15 -37 3 -51 14 -88 26 -88 5 0 9 -7
9 -16 0 -12 4 -11 19 7 22 28 106 36 116 11 3 -9 0 -12 -8 -9 -8 3 -22 -8 -33
-26 -15 -27 -19 -29 -22 -13 -2 10 1 22 8 26 9 5 9 9 1 14 -6 4 -11 3 -11 -3
0 -6 -8 -7 -17 -4 -13 5 -15 2 -10 -11 4 -10 3 -15 -4 -11 -5 4 -16 2 -23 -4
-10 -8 -20 -5 -40 14 -15 14 -32 22 -38 19 -7 -5 -4 -12 8 -21 18 -13 16 -14
-16 -12 -19 2 -41 0 -48 -5 -16 -10 -15 9 1 26 14 14 12 38 -4 38 -5 0 -9 -9
-9 -21 0 -13 -8 -23 -21 -26 -11 -3 -18 -11 -15 -19 7 -17 -25 -6 -41 15 -8
10 -15 12 -20 6 -5 -5 -19 -12 -33 -14 -14 -1 -28 -7 -31 -13 -4 -5 -13 -2
-23 8 -14 14 -19 15 -26 4 -8 -13 -81 -16 -100 -5 -4 3 -6 -3 -3 -14 4 -17 27
-18 569 -18 l564 0 -6 21 c-4 12 -11 24 -16 27 -6 4 -7 16 -4 27 10 29 -59 98
-80 81 -20 -16 -17 -21 6 -14 15 5 21 0 26 -19 7 -28 19 -34 27 -13 3 6 6 2 6
-10 1 -12 -3 -24 -8 -27 -12 -8 -7 -41 7 -41 6 0 14 -3 18 -8 4 -4 -4 -7 -18
-7 -15 0 -32 9 -41 23 -13 18 -16 19 -16 5 -1 -14 -10 -18 -35 -18 -19 0 -38
5 -41 10 -4 6 -12 7 -18 3 -7 -4 -27 -13 -45 -19 -29 -11 -31 -10 -20 4 11 13
10 15 -4 9 -10 -3 -20 -2 -23 3 -10 16 -45 12 -39 -4 5 -12 -3 -12 -47 1 -29
9 -59 22 -67 29 -7 8 -21 14 -30 13 -14 0 -14 -2 -2 -6 19 -8 44 -33 38 -39
-3 -2 -18 2 -34 11 -33 17 -51 19 -56 6 -1 -5 -16 -13 -33 -17 l-30 -7 21 21
c12 11 30 22 40 25 18 4 18 5 1 6 -29 2 -14 24 22 34 24 6 45 4 72 -7 34 -14
38 -14 32 0 -3 8 -12 13 -19 10 -8 -3 -11 0 -8 9 3 7 -3 16 -15 20 -11 3 -20
9 -20 13 4 29 -37 57 -66 46 -10 -4 -15 0 -15 14 0 11 -8 23 -17 27 -17 7 -16
8 2 15 31 13 45 11 39 -4 -5 -13 34 -31 45 -21 2 3 -1 5 -7 5 -7 0 -12 7 -12
15 0 8 7 15 15 15 8 0 15 -6 15 -12 0 -7 15 -23 33 -35 29 -21 30 -23 9 -23
-12 0 -22 -4 -22 -9 0 -6 13 -6 33 1 41 14 57 27 57 46 0 12 -4 11 -16 -6 -17
-25 -39 -30 -31 -7 4 8 2 17 -3 20 -4 3 -10 -1 -13 -7 -3 -9 -10 -7 -21 7 -8
11 -13 26 -11 34 3 7 -3 20 -12 27 -16 13 -17 15 -2 27 9 6 14 17 12 23 -2 7
4 20 13 29 26 25 25 55 0 55 -15 0 -17 -3 -8 -12z m-58 -238 c0 -5 7 -10 15
-10 8 0 15 -4 15 -10 0 -5 -5 -10 -12 -10 -6 0 -3 -6 8 -14 17 -13 16 -14 -18
-11 -37 3 -88 -13 -88 -27 0 -5 -7 -8 -15 -8 -8 0 -15 5 -15 10 0 6 5 10 10
10 6 0 10 7 10 16 0 9 -5 12 -12 8 -6 -4 -8 -3 -5 4 4 5 16 8 27 5 11 -3 20 0
20 6 0 6 7 11 16 11 8 0 13 4 10 9 -4 5 0 12 6 14 21 9 28 8 28 -3z"/>
<path d="M2198 993 c-22 -6 -23 -29 -2 -37 25 -9 41 -7 24 4 -10 6 -11 10 -2
10 6 0 12 7 12 15 0 15 -2 16 -32 8z"/>
<path d="M1700 976 c0 -8 -11 -23 -24 -33 l-24 -18 20 -20 21 -20 -5 22 c-5
18 -3 20 15 14 12 -4 23 -13 25 -19 2 -7 -3 -10 -12 -6 -9 3 -16 2 -16 -4 0
-5 8 -13 17 -16 18 -7 47 20 37 35 -3 5 2 9 10 9 25 0 19 18 -6 22 -17 2 -22
9 -20 26 3 17 -2 22 -17 22 -12 0 -21 -6 -21 -14z m24 -32 c4 -10 1 -14 -6
-12 -15 5 -23 28 -10 28 5 0 13 -7 16 -16z"/>
<path d="M2262 977 c-24 -14 -20 -27 7 -27 14 0 14 2 1 10 -12 8 -11 10 8 10
12 0 22 5 22 10 0 13 -10 12 -38 -3z"/>
<path d="M5 970 c-3 -5 1 -10 9 -10 8 0 18 5 21 10 3 6 -1 10 -9 10 -8 0 -18
-4 -21 -10z"/>
<path d="M2456 964 c-8 -21 -8 -24 4 -24 5 0 14 9 20 20 8 16 8 20 -4 20 -7 0
-17 -7 -20 -16z"/>
<path d="M1774 954 c9 -8 16 -20 16 -25 0 -5 5 -9 11 -9 6 0 8 7 5 16 -3 8 -2
12 3 9 5 -3 12 -1 15 4 6 8 -25 21 -52 21 -10 0 -9 -4 2 -16z"/>
<path d="M2593 958 c1 -8 -8 -13 -22 -13 -14 0 -26 -6 -29 -13 -2 -6 1 -12 7
-12 6 0 25 -15 44 -32 18 -18 68 -65 110 -105 75 -69 77 -70 77 -42 0 16 4 29
10 29 5 0 7 -7 4 -15 -4 -8 -1 -15 5 -15 6 0 11 -9 11 -21 0 -11 -4 -17 -10
-14 -17 11 -11 -4 11 -26 11 -11 23 -18 27 -15 3 4 -3 13 -14 21 -12 9 -14 14
-6 15 16 0 42 -24 42 -40 0 -6 11 -23 25 -38 21 -22 22 -28 10 -30 -9 -2 -33
3 -53 11 -20 8 -42 13 -48 10 -6 -2 -19 6 -29 18 -19 20 -19 20 10 14 l30 -7
-25 21 c-18 14 -27 16 -33 8 -7 -9 -10 -9 -14 1 -2 6 -14 12 -26 11 -22 0 -22
0 1 -9 28 -12 40 -39 21 -50 -15 -10 -32 -3 -25 9 6 9 -41 37 -49 29 -3 -3 6
-17 20 -32 14 -15 25 -29 25 -31 0 -11 -37 11 -59 34 l-24 25 26 22 c23 19 24
23 9 26 -15 3 -14 6 5 16 18 10 28 9 59 -8 20 -12 39 -18 42 -15 10 9 -80 85
-100 85 -10 0 -18 6 -18 14 0 14 -125 116 -142 116 -6 0 -7 7 -4 16 4 11 1 14
-11 12 -23 -4 -25 -19 -7 -43 12 -14 18 -16 21 -7 3 6 9 10 13 7 5 -3 0 -21
-10 -40 -14 -24 -16 -35 -7 -36 6 0 -1 -6 -17 -13 -21 -10 -25 -15 -15 -21 7
-5 14 -4 17 3 6 20 25 13 19 -7 -3 -14 -1 -18 9 -14 17 6 18 15 4 29 -7 7 -5
17 5 30 13 18 14 18 15 1 0 -30 26 -47 68 -47 27 0 42 -5 46 -16 4 -10 14 -14
26 -11 29 7 25 -8 -5 -21 -35 -16 -45 -15 -45 4 0 8 -4 13 -9 10 -11 -7 -2
-46 10 -46 5 0 9 -4 9 -10 0 -18 -15 -11 -58 30 -23 22 -48 40 -55 40 -6 0 -1
-9 12 -19 l23 -18 -31 -22 c-18 -13 -31 -31 -31 -44 0 -19 3 -18 23 10 12 18
29 33 37 33 26 0 62 -35 63 -62 1 -16 7 -24 15 -21 8 4 10 0 6 -12 -5 -12 -13
-15 -33 -10 -14 4 -35 8 -46 9 -34 5 -70 18 -77 30 -12 18 -19 0 -12 -28 4
-19 11 -25 22 -21 12 4 13 3 2 -10 -11 -13 -7 -15 32 -15 24 0 49 5 56 12 8 8
12 8 12 1 0 -7 42 -11 121 -12 95 -1 119 1 113 11 -6 10 -5 10 7 1 16 -13 169
-15 169 -1 0 4 -4 16 -10 26 -5 9 -18 37 -29 62 -12 27 -36 58 -62 78 -62 47
-76 39 -21 -12 38 -36 92 -113 92 -132 0 -2 -11 2 -25 8 -14 6 -25 16 -25 21
0 9 -102 139 -139 177 -13 13 -14 13 -8 -3 7 -19 -1 -47 -14 -47 -5 0 -9 8 -9
18 0 20 -29 52 -47 52 -6 0 -16 6 -22 14 -9 11 -9 15 1 19 7 3 -1 6 -17 6 -42
1 -60 20 -37 37 9 8 22 13 27 14 6 0 3 -5 -5 -11 -12 -8 -7 -9 18 -6 17 2 32
0 32 -4 0 -9 95 -25 118 -21 6 2 12 -2 12 -8 0 -5 7 -10 15 -10 25 0 17 14
-17 30 -40 18 -78 22 -78 9 0 -6 -5 -7 -11 -3 -8 4 -7 9 2 15 7 4 10 11 6 15
-4 4 -13 2 -19 -4 -17 -17 -31 -15 -24 3 4 10 -3 17 -22 21 -15 3 -39 12 -54
20 -32 17 -39 18 -35 2z m47 -28 c0 -5 -9 -10 -21 -10 -11 0 -17 5 -14 10 3 6
13 10 21 10 8 0 14 -4 14 -10z m-57 -107 c6 -32 3 -38 -12 -28 -13 8 -15 55
-2 55 5 0 11 -12 14 -27z m227 -224 c0 -15 -28 -30 -35 -19 -4 6 -12 10 -18 9
-24 -3 -37 1 -37 11 0 6 20 9 45 8 25 -2 45 -6 45 -9z"/>
<path d="M859 950 c-8 -5 -28 -11 -43 -14 -55 -10 -33 -23 28 -16 23 2 67 40
45 40 -8 0 -21 -5 -30 -10z"/>
<path d="M1445 930 c-4 -16 -13 -30 -21 -30 -8 0 -14 -4 -14 -10 0 -5 5 -10
10 -10 6 0 10 -4 10 -10 0 -16 -27 -11 -34 6 -3 9 -13 13 -23 11 -10 -3 -34
-8 -54 -11 -35 -6 -36 -5 -48 34 -18 61 -27 53 -56 -57 -5 -19 -2 -23 15 -23
16 0 20 4 16 16 -3 8 -2 12 4 9 6 -3 10 -15 10 -26 0 -10 1 -19 3 -19 1 1 25
8 52 16 44 12 45 14 12 10 -32 -4 -35 -3 -23 10 21 20 85 17 124 -6 37 -23 43
-50 10 -50 -17 0 -19 -3 -9 -9 7 -5 10 -14 7 -20 -4 -6 8 -3 27 6 26 14 32 21
25 31 -15 17 -3 26 18 14 25 -14 51 12 34 33 -18 22 -32 18 -20 -5 9 -16 8
-20 -5 -20 -9 0 -15 9 -15 24 0 14 -5 28 -11 32 -8 5 -8 8 0 13 8 5 7 16 -5
39 -19 40 -31 40 -39 2z"/>
<path d="M1547 932 c-9 -9 -15 -24 -13 -32 6 -32 18 -48 32 -43 19 7 19 -31
-1 -47 -20 -17 -19 -32 3 -28 9 2 16 9 15 16 -2 9 3 9 22 0 19 -8 28 -8 40 2
17 14 20 40 5 40 -5 0 -10 -9 -10 -21 0 -29 -18 -14 -28 24 -7 25 -14 31 -30
30 -18 -2 -22 3 -22 23 0 14 4 23 10 19 17 -11 32 5 19 21 -15 18 -23 18 -42
-4z"/>
<path d="M27 918 c-33 -29 -35 -40 -4 -29 12 4 28 6 35 4 6 -3 12 0 12 5 0 5
10 10 23 9 12 0 36 3 52 7 28 7 29 7 11 -8 -11 -9 -28 -16 -37 -16 -10 0 -21
-4 -24 -10 -3 -5 -18 -10 -33 -10 -26 -1 -62 -20 -62 -34 0 -13 46 -4 70 14
14 11 32 20 40 20 18 0 130 51 130 59 0 3 -42 7 -93 9 -85 3 -95 1 -120 -20z"/>
<path d="M265 930 c-8 -12 191 -12 220 0 13 5 -22 9 -97 9 -68 1 -119 -3 -123
-9z"/>
<path d="M1894 914 c4 -10 -1 -22 -10 -29 -14 -10 -15 -13 -2 -17 25 -10 41 7
34 36 -3 14 -11 26 -17 26 -6 0 -8 -7 -5 -16z"/>
<path d="M2209 914 c-6 -8 -2 -16 16 -28 28 -18 35 -10 8 9 -13 10 -5 12 45 9
34 -1 62 2 62 7 0 10 -2 10 -73 13 -27 1 -52 -3 -58 -10z"/>
<path d="M2164 895 c9 -13 16 -31 16 -40 0 -8 5 -15 11 -15 7 0 8 7 4 18 -4 9
-10 27 -12 40 -3 12 -12 22 -20 22 -13 0 -13 -3 1 -25z"/>
<path d="M880 894 c-16 -8 -19 -14 -9 -14 8 0 24 7 35 15 24 18 7 18 -26 -1z"/>
<path d="M390 885 c-42 -12 -43 -13 -14 -14 45 -1 95 10 88 20 -7 11 -18 10
-74 -6z"/>
<path d="M741 889 c-14 -5 -31 -7 -38 -4 -8 2 -11 0 -8 -5 9 -14 46 -12 75 5
28 16 8 19 -29 4z"/>
<path d="M1153 893 c-7 -3 -15 -20 -19 -39 -3 -19 -12 -34 -19 -34 -7 0 -18
-7 -25 -15 -7 -8 -19 -15 -26 -15 -8 0 -14 7 -14 15 0 8 -5 15 -10 15 -14 0
-7 -53 7 -57 6 -2 14 1 18 6 3 6 19 11 36 11 29 0 29 0 9 -20 -22 -22 -25 -36
-11 -44 5 -3 11 -17 13 -31 4 -19 1 -25 -13 -25 -10 0 -21 -5 -25 -12 -5 -8 0
-9 14 -6 19 5 22 2 22 -22 0 -16 6 -31 13 -33 7 -4 8 -6 1 -6 -6 -1 -17 6 -24
14 -14 17 -46 20 -55 5 -5 -8 -12 -7 -22 1 -12 10 -16 10 -23 -1 -5 -8 -12
-11 -16 -7 -9 9 15 37 33 37 8 0 11 -4 8 -10 -3 -5 -1 -10 5 -10 15 0 23 26
16 55 -6 23 -10 24 -55 22 -47 -3 -49 -2 -48 22 3 30 27 41 27 12 0 -25 18
-37 33 -22 8 8 8 11 -1 11 -7 0 -12 7 -12 15 0 8 8 15 18 15 11 0 13 -3 6 -8
-9 -5 -9 -10 0 -17 13 -12 46 -14 46 -2 0 4 0 13 0 21 0 9 -16 18 -42 23 -48
10 -82 -2 -110 -39 -9 -13 -20 -19 -24 -15 -4 4 1 16 10 26 18 20 14 42 -7 40
-8 0 -7 -2 1 -6 9 -3 3 -12 -18 -24 -36 -22 -33 -35 10 -44 17 -4 27 -11 24
-17 -4 -6 1 -8 15 -3 14 4 21 2 21 -7 0 -9 3 -9 10 2 8 12 13 13 30 3 11 -7
27 -13 35 -13 8 0 15 -4 15 -10 0 -5 -8 -10 -19 -10 -10 0 -24 -7 -31 -15 -7
-8 -19 -15 -26 -15 -8 0 -14 7 -14 15 0 8 -4 15 -10 15 -12 0 -64 -23 -70 -31
-3 -4 -25 -12 -48 -19 -38 -10 -45 -9 -56 6 -7 9 -18 14 -24 10 -5 -3 -12 -2
-14 4 -1 5 -18 13 -36 16 -28 6 -34 4 -39 -15 -6 -25 -4 -24 -37 -8 -14 8 -23
17 -19 21 10 10 -29 35 -54 36 -13 0 -23 5 -23 10 0 6 -9 10 -21 10 -12 0 -19
-5 -17 -12 3 -7 10 -13 16 -13 23 0 11 -28 -24 -58 -20 -16 -22 -16 -50 8 -16
14 -35 25 -41 25 -7 0 -13 5 -13 10 0 6 -4 10 -9 10 -20 0 2 -40 23 -40 18 -1
17 -3 -9 -17 -20 -11 -30 -12 -33 -4 -2 6 -10 11 -18 11 -9 0 -13 4 -9 9 3 5
0 13 -6 17 -7 4 -9 3 -6 -3 4 -6 0 -16 -7 -22 -11 -10 -17 -8 -25 6 -10 17
-10 17 -11 -1 0 -14 -3 -16 -14 -7 -7 6 -26 12 -42 12 -42 2 -65 9 -59 19 3 4
-9 13 -25 19 -18 6 -30 6 -30 0 0 -5 6 -9 13 -9 17 0 49 -34 41 -43 -3 -3 -14
-1 -24 5 -10 6 -25 8 -36 3 -27 -11 -72 -16 -56 -6 11 7 11 9 0 14 -10 3 -15
-4 -16 -23 l-2 -28 345 1 c190 0 345 4 345 8 0 4 17 3 38 -1 29 -6 578 -7 590
-1 1 0 -5 12 -14 26 -18 28 -34 33 -34 10 0 -8 -4 -15 -10 -15 -5 0 -10 7 -10
15 0 14 -3 14 -27 1 -24 -12 -30 -12 -42 1 -12 13 -12 16 0 24 8 5 19 9 26 9
6 0 11 8 10 18 -1 16 -6 14 -33 -12 -22 -20 -29 -33 -21 -38 6 -4 8 -10 5 -13
-11 -12 -43 19 -45 43 -2 12 2 22 7 22 15 0 12 21 -7 42 -23 26 -3 72 28 63
14 -5 26 0 40 16 17 20 18 24 4 39 -8 9 -13 19 -10 22 9 9 -20 55 -32 51z m27
-100 c0 -18 -17 -16 -24 3 -8 22 4 40 15 23 5 -8 9 -20 9 -26z m-616 -169 c11
-28 6 -36 -19 -32 -13 3 -22 1 -19 -3 3 -5 -2 -9 -10 -9 -26 0 -18 29 9 36 14
3 22 10 19 15 -3 5 -1 9 4 9 6 0 13 -7 16 -16z"/>
<path d="M207 868 c-5 -17 -37 -24 -89 -20 -10 1 -18 -3 -18 -9 0 -5 4 -7 10
-4 5 3 10 1 10 -5 0 -7 8 -9 20 -5 11 3 20 2 20 -4 0 -5 14 -12 30 -16 17 -4
30 -10 30 -14 0 -4 9 -7 20 -7 31 0 24 13 -15 27 -19 7 -35 16 -35 20 0 11 39
18 63 12 35 -9 113 -16 106 -9 -3 3 -37 16 -77 29 -67 22 -71 22 -75 5z"/>
<path d="M2450 883 c0 -5 4 -15 10 -23 11 -18 25 -7 17 15 -6 15 -27 21 -27 8z"/>
<path d="M783 869 c-18 -5 -33 -14 -33 -20 0 -12 36 -3 65 17 22 16 14 16 -32
3z"/>
<path d="M940 860 c0 -13 11 -13 30 0 12 8 11 10 -7 10 -13 0 -23 -4 -23 -10z"/>
<path d="M1815 851 c-4 -15 -14 -18 -58 -15 -28 2 -44 1 -34 -2 9 -3 17 -10
17 -16 0 -5 -7 -7 -15 -4 -8 3 -23 9 -32 13 -13 5 -12 1 5 -17 l22 -24 22 21
c16 15 31 20 51 16 20 -4 27 -1 27 11 0 9 7 16 15 16 8 0 15 5 15 10 0 18 -28
11 -35 -9z"/>
<path d="M2103 855 c-3 -9 -12 -14 -20 -11 -8 3 -11 2 -8 -3 3 -5 -3 -12 -12
-14 -15 -4 -15 -5 3 -6 11 0 25 4 32 11 9 9 16 8 30 -5 10 -9 27 -17 38 -16
19 0 19 0 0 12 -11 7 -28 20 -38 30 -16 16 -19 16 -25 2z"/>
<path d="M2231 844 c13 -16 29 -19 29 -5 0 5 -9 11 -21 14 -16 4 -18 3 -8 -9z"/>
<path d="M2710 856 c0 -2 11 -11 25 -20 25 -17 25 -16 13 4 -11 17 -38 29 -38
16z"/>
<path d="M648 844 c-2 -2 -21 -4 -42 -6 -20 -1 -40 -6 -43 -11 -4 -6 9 -7 31
-3 29 6 36 4 36 -9 0 -8 7 -15 15 -15 8 0 15 6 15 13 0 8 17 18 38 24 l37 10
-42 0 c-23 0 -44 -1 -45 -3z"/>
<path d="M2775 830 c22 -24 41 -26 49 -4 9 23 0 29 -19 14 -10 -8 -15 -9 -15
-1 0 6 -7 11 -17 11 -14 0 -14 -2 2 -20z"/>
<path d="M450 826 c0 -8 5 -18 10 -21 20 -12 10 -27 -14 -21 -31 8 -41 -7 -20
-28 14 -15 14 -17 -1 -22 -8 -4 -24 1 -34 10 -10 9 -21 13 -26 9 -4 -5 -5 -2
-1 5 4 6 14 12 22 12 19 0 18 16 -3 24 -9 4 -20 1 -24 -5 -4 -7 -14 -9 -22 -6
-9 3 -17 1 -19 -5 -2 -6 -19 -11 -36 -12 -26 -1 -32 -5 -28 -18 2 -11 -1 -18
-9 -18 -8 0 -17 -5 -20 -10 -5 -7 9 -10 39 -8 25 2 46 6 46 11 0 4 9 7 20 7
21 0 27 -15 10 -25 -15 -9 -12 -35 4 -35 8 0 22 -7 30 -16 9 -8 16 -12 16 -8
0 4 14 -5 30 -21 17 -16 30 -23 30 -17 0 7 8 12 17 12 15 0 15 2 -2 14 -11 8
-26 11 -35 8 -11 -4 -10 0 4 16 20 23 9 31 -12 10 -9 -9 -15 -9 -24 0 -7 7
-23 12 -37 12 -24 0 -24 0 -5 21 18 20 33 20 80 2 13 -5 16 -3 11 10 -6 17 15
41 27 30 4 -4 4 1 0 12 -7 18 -6 18 9 6 11 -9 17 -10 17 -2 0 14 47 15 55 1 3
-5 -2 -10 -12 -10 -18 0 -47 -53 -35 -64 11 -12 32 -5 51 15 12 13 21 17 26
10 8 -14 25 -14 25 0 0 6 -9 13 -20 16 -11 3 -20 10 -20 15 0 6 11 7 28 3 l27
-6 -31 30 c-22 21 -39 30 -62 29 -18 -1 -32 -5 -32 -11 0 -5 -7 -4 -15 3 -8 7
-15 18 -15 26 0 7 -4 16 -10 19 -5 3 -10 -1 -10 -9z"/>
<path d="M2844 833 c3 -6 1 -15 -5 -18 -6 -4 1 -13 17 -21 42 -22 48 -12 13
21 -18 17 -29 25 -25 18z"/>
<path d="M1313 784 c-29 -24 -30 -27 -16 -44 13 -15 20 -16 34 -7 28 17 23 28
-8 21 -25 -7 -27 -6 -14 9 15 19 43 22 72 7 28 -15 23 5 -6 24 -30 20 -25 21
-62 -10z"/>
<path d="M40 790 c8 -5 33 -10 56 -10 28 0 47 -6 59 -20 22 -24 88 -29 79 -6
-4 10 -16 13 -42 9 -26 -3 -33 -2 -23 5 11 8 2 12 -35 17 -27 3 -62 8 -79 10
-22 4 -26 2 -15 -5z"/>
<path d="M750 791 c0 -5 13 -11 29 -13 21 -3 28 -1 24 9 -6 14 -53 18 -53 4z"/>
<path d="M1256 779 c-25 -25 -8 -24 24 1 16 13 20 19 10 19 -8 0 -24 -9 -34
-20z"/>
<path d="M1650 782 c-8 -9 -10 -17 -5 -19 23 -8 39 -22 32 -29 -4 -4 -18 -1
-32 6 -20 11 -27 11 -40 0 -8 -7 -15 -8 -15 -2 0 17 -60 23 -76 8 -18 -19 -18
-23 5 -29 14 -3 18 -1 14 9 -3 8 1 14 10 14 23 0 30 -16 17 -40 -8 -16 -8 -20
4 -20 8 0 19 7 24 16 6 11 17 15 31 11 11 -3 21 -1 21 3 0 4 18 6 40 3 48 -7
53 8 13 34 -16 9 -30 19 -33 21 -2 1 2 7 9 11 7 5 9 11 5 14 -5 3 -16 -2 -24
-11z"/>
<path d="M2158 775 c-28 -24 -36 -45 -18 -45 6 0 10 6 10 13 0 8 11 19 25 25
14 6 25 16 25 22 0 16 -13 11 -42 -15z"/>
<path d="M1216 772 c-5 -13 -19 -22 -46 -26 -22 -3 -40 -11 -40 -16 0 -5 7 -7
15 -4 18 7 21 -27 4 -58 -6 -11 -8 -22 -5 -26 12 -12 26 15 29 56 1 32 6 42
19 42 17 0 44 37 35 47 -3 2 -8 -4 -11 -15z"/>
<path d="M2950 760 c0 -5 4 -10 8 -10 5 0 15 -12 22 -27 7 -16 15 -23 17 -16
3 7 -3 20 -11 29 -9 8 -16 20 -16 25 0 5 -4 9 -10 9 -5 0 -10 -4 -10 -10z"/>
<path d="M808 753 c-10 -3 -18 -9 -18 -14 0 -5 -12 -9 -26 -9 -14 0 -34 -5
-45 -10 -21 -12 -26 -35 -6 -27 8 3 20 1 27 -3 9 -6 19 -2 28 11 7 10 21 19
31 19 20 0 47 26 34 32 -4 3 -16 3 -25 1z"/>
<path d="M1251 739 c-1 -17 46 -66 55 -57 10 11 -16 47 -30 42 -8 -3 -16 2
-19 13 -4 13 -5 14 -6 2z"/>
<path d="M1450 746 c0 -2 7 -9 15 -16 12 -10 15 -10 15 4 0 9 -7 16 -15 16 -8
0 -15 -2 -15 -4z"/>
<path d="M2084 734 c3 -9 6 -18 6 -20 0 -2 7 -4 15 -4 8 0 15 -5 15 -11 0 -5
5 -7 10 -4 7 4 1 16 -15 31 -30 28 -40 30 -31 8z"/>
<path d="M2460 740 c0 -5 9 -10 20 -10 11 0 20 -4 20 -10 0 -9 -8 -12 -26 -9
-9 1 -24 -23 -24 -38 0 -7 5 -13 10 -13 6 0 10 7 10 15 0 8 3 15 8 15 4 0 16
7 26 15 20 15 20 15 0 30 -22 17 -44 19 -44 5z"/>
<path d="M163 726 c14 -19 7 -27 -15 -21 -19 6 -21 5 -11 -6 10 -10 10 -16 0
-28 -10 -12 -9 -13 1 -7 7 4 23 1 35 -7 13 -8 51 -15 90 -16 66 -2 67 -1 55
19 -7 11 -16 20 -21 20 -4 0 -5 -4 -2 -10 3 -5 1 -10 -4 -10 -6 0 -11 5 -11
10 0 6 -11 10 -25 10 -27 0 -59 15 -85 40 -8 9 -12 11 -7 6z m31 -42 c9 -3 16
-10 16 -15 0 -14 -26 -10 -40 6 -13 16 -3 20 24 9z"/>
<path d="M626 708 c-15 -13 -16 -18 -5 -18 10 -1 9 -3 -3 -11 -20 -11 -25 -43
-5 -37 6 3 16 14 22 26 11 26 25 29 25 6 0 -14 3 -14 15 -4 20 17 19 25 -7 42
-21 13 -25 13 -42 -4z"/>
<path d="M1217 723 c-3 -5 1 -14 9 -21 12 -11 14 -9 14 8 0 20 -14 27 -23 13z"/>
<path d="M2160 705 c0 -8 -5 -15 -11 -15 -8 0 -8 -4 1 -15 14 -17 5 -36 -15
-28 -8 3 -15 1 -15 -5 0 -13 35 -22 88 -22 36 0 42 3 42 22 0 20 -1 20 -19 4
-11 -10 -27 -16 -37 -14 -22 4 -31 28 -10 28 8 0 18 5 22 11 4 7 0 9 -14 5
-22 -7 -39 8 -22 19 13 8 13 25 0 25 -5 0 -10 -7 -10 -15z"/>
<path d="M1348 703 c-22 -5 -24 -23 -3 -23 25 0 17 -17 -12 -25 -50 -14 -77
-14 -86 -2 -6 8 -7 8 -4 -3 2 -9 14 -14 31 -13 14 1 26 -3 26 -8 0 -15 83 2
102 21 9 10 15 19 13 21 -7 8 90 3 103 -4 16 -11 16 -28 -1 -21 -8 3 -20 -2
-27 -11 -15 -18 -12 -18 27 -4 24 8 30 15 26 30 -6 22 -48 43 -69 35 -7 -2
-15 -2 -18 1 -7 7 -84 11 -108 6z"/>
<path d="M70 690 c0 -5 4 -10 9 -10 5 0 18 -3 28 -6 16 -6 16 -5 -2 9 -23 19
-35 21 -35 7z"/>
<path d="M1670 680 c-10 -6 -11 -13 -5 -19 6 -6 16 -7 25 -1 10 6 11 13 5 19
-6 6 -16 7 -25 1z"/>
<path d="M2070 688 c0 -3 8 -15 19 -27 18 -21 19 -21 24 -1 3 11 1 20 -3 20
-5 0 -15 3 -24 6 -9 3 -16 4 -16 2z"/>
<path d="M690 671 c0 -12 26 -21 60 -21 32 0 58 -24 39 -36 -8 -4 -9 -3 -5 4
4 7 1 12 -8 12 -13 0 -14 -3 -5 -18 11 -18 14 -18 50 6 22 14 39 29 39 34 0
13 -28 9 -33 -4 -3 -9 -11 -4 -24 12 -16 19 -24 22 -35 13 -9 -8 -19 -9 -28
-3 -19 12 -50 13 -50 1z"/>
<path d="M1255 670 c3 -5 13 -10 21 -10 8 0 14 5 14 10 0 6 -9 10 -21 10 -11
0 -17 -4 -14 -10z"/>
<path d="M2330 673 c0 -17 18 -35 28 -29 6 3 12 0 15 -6 2 -7 8 -10 11 -6 4 3
-2 16 -13 27 -21 21 -41 28 -41 14z"/>
<path d="M1578 652 c-4 -15 0 -22 15 -26 30 -8 34 1 10 25 -20 21 -20 21 -25
1z"/>
<path d="M2530 655 c-6 -8 -9 -19 -6 -24 9 -14 63 -9 63 5 0 6 -9 9 -20 6 -16
-4 -19 -1 -14 11 8 21 -6 22 -23 2z"/>
<path d="M35 630 c3 -5 13 -10 21 -10 8 0 14 5 14 10 0 6 -9 10 -21 10 -11 0
-17 -4 -14 -10z"/>
<path d="M1403 625 c-18 -20 -16 -24 6 -18 22 6 37 33 18 33 -7 -1 -18 -7 -24
-15z"/>
<path d="M1044 510 c-5 -5 -25 -10 -44 -12 -19 -2 -34 -7 -32 -13 2 -5 16 -9
33 -7 16 1 29 1 29 -1 0 -10 -42 -87 -50 -92 -5 -3 -10 -18 -10 -32 0 -19 4
-24 16 -19 9 3 31 6 50 6 25 0 34 4 34 16 0 13 -7 15 -35 10 -19 -4 -35 -4
-35 -1 0 3 11 23 25 45 14 22 25 44 25 50 0 5 5 10 10 10 12 0 13 37 2 44 -5
3 -13 1 -18 -4z"/>
<path d="M1146 505 c-3 -9 -6 -39 -6 -65 0 -27 -4 -52 -10 -55 -13 -8 -13 -55
0 -55 5 0 12 11 16 24 9 36 33 41 44 10 6 -14 10 -32 10 -40 0 -8 4 -14 9 -14
19 0 21 18 6 53 -8 19 -12 37 -9 40 3 3 2 12 -2 19 -5 7 -13 31 -19 52 -11 43
-29 57 -39 31z m34 -87 c0 -5 -4 -8 -10 -8 -5 0 -10 10 -10 23 0 18 2 19 10 7
5 -8 10 -18 10 -22z"/>
<path d="M1290 510 c-8 -5 -32 -10 -53 -10 -27 0 -37 -4 -34 -12 2 -7 12 -13
23 -13 27 0 30 -6 28 -79 -1 -36 3 -66 7 -66 5 0 12 -1 16 -2 4 -2 7 33 7 77
1 77 2 80 24 78 16 -2 22 2 22 17 0 22 -16 26 -40 10z"/>
<path d="M1406 508 c-3 -7 -5 -20 -5 -28 -5 -65 -15 -116 -23 -121 -13 -9 -1
-29 17 -29 7 0 15 12 17 27 2 14 9 28 15 31 13 4 17 -3 27 -50 4 -16 13 -28
21 -28 17 0 20 26 5 35 -5 3 -10 21 -10 40 0 19 -5 37 -10 40 -6 4 -8 10 -5
15 3 5 1 11 -5 15 -5 3 -10 19 -10 36 0 30 -26 42 -34 17z m34 -78 c0 -11 -6
-20 -14 -20 -9 0 -12 7 -9 20 3 11 9 20 14 20 5 0 9 -9 9 -20z"/>
<path d="M1769 518 c0 -2 -2 -21 -4 -43 -10 -95 -13 -102 -45 -97 -30 4 -30 5
-30 68 0 36 -4 64 -10 64 -6 0 -10 -35 -10 -86 0 -94 -1 -93 64 -68 11 4 16 1
16 -10 0 -9 5 -16 10 -16 6 0 10 8 10 18 0 18 18 42 31 42 4 0 10 -18 14 -40
4 -25 12 -40 21 -40 16 0 19 36 4 45 -5 3 -10 16 -10 27 0 12 -4 35 -10 52 -5
17 -12 43 -15 59 -3 15 -12 27 -20 27 -8 0 -15 -1 -16 -2z m31 -88 c0 -11 -4
-20 -10 -20 -5 0 -10 9 -10 20 0 11 5 20 10 20 6 0 10 -9 10 -20z"/>
<path d="M920 454 c0 -53 -1 -56 -15 -38 -21 28 -18 5 5 -44 12 -24 24 -41 28
-38 13 8 6 170 -7 174 -7 2 -11 -17 -11 -54z"/>
<path d="M1562 485 c-13 -14 -25 -45 -28 -68 -5 -36 -2 -45 20 -66 20 -19 29
-22 38 -13 18 18 26 15 30 -10 2 -13 7 -23 13 -23 10 0 12 132 2 141 -7 7 -57
-26 -57 -38 0 -5 8 -8 18 -7 30 3 33 0 22 -21 -14 -27 -49 -26 -59 2 -12 32
-2 66 26 88 14 10 22 24 18 30 -10 16 -19 12 -43 -15z"/>
<path d="M1920 454 c0 -53 -1 -56 -14 -39 -7 11 -17 35 -21 53 -5 22 -12 32
-26 32 -20 0 -26 -24 -8 -36 6 -4 9 -22 6 -43 -6 -44 5 -92 17 -73 4 7 5 26 1
42 -9 43 6 37 31 -11 11 -23 24 -39 29 -38 13 6 10 162 -4 167 -7 2 -11 -16
-11 -54z"/>
<path d="M840 487 c0 -8 3 -17 8 -21 4 -4 7 -33 7 -63 0 -39 4 -58 14 -61 11
-4 13 4 9 36 -3 22 -1 45 4 50 17 17 -1 72 -23 72 -10 0 -19 -6 -19 -13z"/>
<path d="M1997 474 c-25 -23 -28 -31 -25 -82 3 -53 5 -57 29 -60 15 -2 32 5
44 18 24 26 13 36 -17 16 -29 -19 -38 -13 -38 26 0 39 16 67 46 78 13 5 24 14
24 20 0 19 -35 10 -63 -16z"/>
<path d="M2079 453 c-2 -48 1 -116 5 -120 8 -9 76 21 76 32 0 18 -5 19 -30 3
-17 -11 -22 -10 -30 2 -15 23 -7 33 31 44 31 9 32 10 9 13 -47 7 -52 11 -40
33 8 15 17 19 37 14 19 -5 24 -3 21 7 -2 8 -21 15 -41 17 l-37 3 -1 -48z"/>
</g>
</svg>
